<svg viewBox="0 0 400 400" xmlns="http://www.w3.org/2000/svg" role="img" aria-label="Virgin coconut oil bottle">
  <defs>
    <linearGradient id="coGlass" x1="0" y1="0" x2="1" y2="0">
      <stop offset="0" stop-color="#fff6e6"/>
      <stop offset="35%" stop-color="#f6e7cd"/>
      <stop offset="100%" stop-color="#c9a877"/>
    </linearGradient>
    <linearGradient id="coCap" x1="0" y1="0" x2="0" y2="1">
      <stop offset="0" stop-color="#4a3a2c"/>
      <stop offset="100%" stop-color="#241b14"/>
    </linearGradient>
    <radialGradient id="coShadow" cx="50%" cy="50%" r="50%">
      <stop offset="0" stop-color="#000" stop-opacity=".45"/>
      <stop offset="100%" stop-color="#000" stop-opacity="0"/>
    </radialGradient>
  </defs>
  <ellipse cx="200" cy="352" rx="98" ry="22" fill="url(#coShadow)"/>
  <rect x="172" y="44" width="56" height="34" rx="9" fill="url(#coCap)"/>
  <rect x="182" y="76" width="36" height="34" fill="#e4d2b4"/>
  <path d="M182 104c0 18-52 32-52 82v122c0 18 14 32 32 32h76c18 0 32-14 32-32V186c0-50-52-64-52-82z" fill="url(#coGlass)"/>
  <rect x="132" y="212" width="136" height="88" rx="6" fill="#12100e" opacity=".85"/>
  <rect x="148" y="232" width="104" height="8" rx="4" fill="#f0a03c"/>
  <rect x="158" y="252" width="84" height="6" rx="3" fill="#f2ece3" opacity=".65"/>
  <rect x="170" y="270" width="60" height="6" rx="3" fill="#f2ece3" opacity=".35"/>
  <rect x="150" y="150" width="14" height="140" rx="7" fill="#fff" opacity=".5"/>
</svg>
